<?xml version="1.0" encoding="utf-8"?>
<!-- Generator: Adobe Illustrator 21.0.0, SVG Export Plug-In . SVG Version: 6.00 Build 0)  -->
<svg version="1.1" id="Camada_1" xmlns="http://www.w3.org/2000/svg" xmlns:xlink="http://www.w3.org/1999/xlink" x="0px" y="0px"
	 viewBox="0 0 836 304" style="enable-background:new 0 0 836 304;" xml:space="preserve">
<style type="text/css">
	.st0{display:none;fill:#211C1D;}
	.st1{fill:none;stroke:#EF0980;stroke-width:2;stroke-miterlimit:10;}
	.st2{fill:#EF0980;}
	.st3{fill:none;stroke:#EF0980;stroke-width:1.5;stroke-miterlimit:10;}
	.st4{fill:#B0AAA2;}
	.st5{fill:#5FB423;}
</style>
<rect x="-22" y="-4" class="st0" width="878" height="368"/>
<polygon class="st1" points="127.7,209.4 79.7,209.4 55.7,250.9 79.7,292.5 127.7,292.5 151.8,250.9 "/>
<polygon class="st1" points="127.7,114 79.7,114 55.7,155.6 79.7,197.2 127.7,197.2 151.8,155.6 "/>
<g>
	<polygon class="st2" points="237.7,45 189.7,45 165.7,86.6 189.7,128.2 237.7,128.2 261.8,86.6 	"/>
	<path class="st2" d="M238.2,128.9h-48.9l-24.4-42.3l24.4-42.3h48.9l24.4,42.3L238.2,128.9z M190.2,127.4h47.2l23.6-40.8l-23.6-40.8
		h-47.2l-23.6,40.8L190.2,127.4z"/>
</g>
<polygon class="st1" points="52.2,176.2 22.3,176.2 7.4,202 22.3,227.9 52.2,227.9 67.1,202 "/>
<polygon class="st3" points="206,185.8 190.9,185.8 183.4,198.8 190.9,211.9 206,211.9 213.6,198.8 "/>
<path class="st4" d="M218.3,248.5c0,9.5,0,19,0,28.5c0,1.6,0.5,3.1,1,4.6c0.7,2.2,2.6,3,4.6,3.3c1.8,0.3,3.7,0.4,5.5,0.7
	c0.5,0.1,1.2,0.4,1.5,0.8c1.1,1.2,0.8,4.8-0.3,5.9c-0.3,0.3-0.8,0.5-1.2,0.4c-4.6-0.1-9.1-0.3-13.7-0.5c-0.5,0-1.1-0.1-1.6-0.1
	c-10.1,0.1-20.2,0.2-30.3,0.3c-1.8,0-3.5,0.2-5.3,0.3c-1.9,0.1-2.6-0.4-3-2.3c-0.2-0.9-0.2-1.8,0-2.7c0.3-1.3,0.9-2.2,2.6-2.2
	c1.7,0,3.5-0.2,5.2-0.6c3.6-0.8,5-2.2,5.3-6.3c0.5-6.7,0.5-13.4,0.6-20.2c0.1-4.4,0-8.8,0-13.3c0-4.3-1.4-7.8-5.5-9.7
	c-1.5-0.7-2.8-1.7-3.1-3.6c-0.3-2.1,0.3-3.6,2.4-4.1c4.8-1.2,9.6-2.4,14.3-3.9c5.6-1.9,11-4.2,16.5-6.3c0.3-0.1,0.6-0.2,0.8-0.3
	c2.4-0.9,3.9,0,3.9,2.6c-0.1,5.4-0.3,10.8-0.4,16.3C218.2,240.3,218.2,244.4,218.3,248.5C218.2,248.5,218.3,248.5,218.3,248.5z"/>
<path class="st4" d="M293.8,277.9c-0.8-0.7-1.5-0.8-2.4-0.2c-3.6,2.1-7.5,2.9-11.6,2.3c-6.1-0.9-10-3.9-11.2-10.6
	c-0.8-4-1-8.1-1-12.1c-0.1-10.8,0-21.5,0-32.3c0-0.7,0-1.3,0.1-2c0.3-2.2,0.5-2.4,2.8-2.4c6.3,0,12.6,0,18.9,0
	c1.3,0,2.1-0.5,2.7-1.5c1.3-2,1.6-4.3,1.4-6.6c-0.2-2.3-1.2-3.1-3.4-3.1c-6.2,0-12.4,0-18.6,0c-3.2,0-3.6-0.3-3.6-3.5
	c0-4.7,0-9.5,0-14.2c0-1.5-0.8-2.8-2.1-2.9c-1.1,0-2.4,0.2-3.4,0.8c-1.2,0.7-2.1,1.9-3.2,2.7c-4.8,3.5-9.6,7.3-14.6,10.5
	c-5.6,3.6-11.6,6.8-17.4,10c-1.9,1-2.4,1.7-2,4c0.4,2.1,1.8,3.7,3.5,3.7c2,0,3.9,0,5.9,0c3.9,0,4.2,0.3,4.2,4.2
	c0,15.4,0,30.9,0,46.3c0,2.7,0.3,5.4,1,8c1.6,6,5,10.1,10.1,12.5c3.1,1.8,8.1,2.9,13.8,2.9c1.6,0,3.1-0.1,4.6-0.3
	c3.2-0.2,6.4-1.4,7.7-1.7c6.7-1.6,12.7-4.4,18-8.9C296.1,281.8,296,279.8,293.8,277.9z"/>
<path class="st5" d="M366.1,233.1c-0.5,0.8-1,1.3-1.4,1.7c-0.5,0.4-1.1,0.5-1.9,0.5c-0.7,0-1.5-0.3-2.4-0.8c-0.9-0.5-1.9-1.1-3-1.7
	c-1.1-0.6-2.5-1.2-4-1.7c-1.5-0.5-3.2-0.8-5.2-0.8c-3.5,0-6.1,0.8-7.9,2.4c-1.8,1.6-2.6,3.6-2.6,6.2c0,1.6,0.5,3,1.4,4
	s2.2,2,3.8,2.8c1.6,0.8,3.4,1.5,5.3,2.1c2,0.6,4,1.3,6.1,2c2.1,0.7,4.1,1.6,6.1,2.6c2,1,3.8,2.2,5.3,3.7c1.6,1.5,2.8,3.3,3.8,5.4
	c1,2.1,1.4,4.8,1.4,7.8c0,3.3-0.6,6.5-1.7,9.4c-1.2,2.9-2.8,5.5-5,7.6c-2.2,2.2-4.9,3.9-8.1,5.1c-3.2,1.2-6.9,1.9-11,1.9
	c-2.3,0-4.7-0.2-7-0.7s-4.5-1.1-6.7-2c-2.1-0.8-4.2-1.9-6.1-3c-1.9-1.2-3.5-2.5-5-4l4.5-7.2c0.4-0.5,0.9-1,1.5-1.3
	c0.6-0.4,1.2-0.5,1.9-0.5c0.9,0,1.9,0.3,2.9,1c1,0.7,2.2,1.4,3.5,2.2c1.3,0.8,2.8,1.6,4.6,2.2c1.7,0.7,3.8,1,6.3,1
	c3.5,0,6.3-0.8,8.2-2.4c1.9-1.6,2.9-4,2.9-7.2c0-1.9-0.5-3.4-1.4-4.5c-1-1.1-2.2-2.1-3.8-2.9c-1.6-0.8-3.3-1.4-5.3-2s-4-1.2-6.1-1.8
	c-2.1-0.7-4.1-1.5-6.1-2.4c-2-0.9-3.8-2.2-5.3-3.7c-1.6-1.6-2.8-3.5-3.8-5.8c-1-2.3-1.4-5.1-1.4-8.6c0-2.7,0.5-5.4,1.6-8
	c1.1-2.6,2.7-4.8,4.8-6.8c2.1-2,4.7-3.6,7.7-4.8c3.1-1.2,6.6-1.8,10.5-1.8c4.4,0,8.5,0.7,12.3,2.1s6.9,3.3,9.5,5.7L366.1,233.1z"/>
<path class="st5" d="M397.4,292.5h-15.3V219h15.3V292.5z"/>
<path class="st5" d="M475.7,219v73.5h-7.8c-1.2,0-2.2-0.2-3-0.6c-0.8-0.4-1.6-1.1-2.4-2l-36.6-46.6c0.1,1.2,0.2,2.3,0.2,3.5
	c0.1,1.1,0.1,2.2,0.1,3.2v42.5h-13.4V219h8c0.6,0,1.2,0,1.6,0.1c0.5,0.1,0.9,0.2,1.2,0.4c0.4,0.2,0.7,0.4,1.1,0.7s0.7,0.7,1.1,1.2
	l36.9,46.8c-0.1-1.3-0.2-2.5-0.3-3.7c-0.1-1.2-0.1-2.3-0.1-3.4v-42H475.7z"/>
<path class="st5" d="M526.9,255.1h25.2v30.3c-3.7,2.7-7.7,4.7-12,6s-8.7,1.9-13.4,1.9c-6,0-11.5-0.9-16.4-2.8
	c-4.9-1.9-9.1-4.5-12.6-7.8c-3.5-3.3-6.2-7.3-8.1-11.9c-1.9-4.6-2.8-9.6-2.8-15c0-5.5,0.9-10.6,2.7-15.1c1.8-4.6,4.4-8.5,7.7-11.8
	c3.3-3.3,7.4-5.9,12.1-7.7c4.7-1.9,10.1-2.8,15.9-2.8c3,0,5.9,0.2,8.5,0.7c2.6,0.5,5.1,1.2,7.3,2c2.2,0.9,4.3,1.9,6.1,3.1
	c1.9,1.2,3.5,2.5,5.1,3.9l-4.4,6.8c-0.7,1.1-1.6,1.7-2.6,2c-1.1,0.2-2.3,0-3.5-0.8c-1.2-0.7-2.4-1.4-3.6-2c-1.2-0.6-2.4-1.1-3.7-1.5
	c-1.3-0.4-2.8-0.8-4.3-1c-1.6-0.2-3.3-0.4-5.4-0.4c-3.4,0-6.5,0.6-9.3,1.8c-2.8,1.2-5.1,2.9-7.1,5c-1.9,2.2-3.4,4.8-4.5,7.8
	c-1,3-1.6,6.4-1.6,10.2c0,4.1,0.6,7.7,1.7,10.9c1.1,3.2,2.8,5.9,4.9,8.1c2.1,2.2,4.6,3.9,7.5,5c2.9,1.1,6.2,1.7,9.7,1.7
	c2.4,0,4.6-0.2,6.5-0.7c1.9-0.5,3.8-1.2,5.6-2v-12.4H530c-1,0-1.7-0.3-2.3-0.8c-0.6-0.5-0.8-1.2-0.8-2V255.1z"/>
<path class="st5" d="M594.6,280.3c2.5,0,4.7-0.4,6.6-1.2c2-0.8,3.6-2,5-3.5c1.3-1.5,2.4-3.4,3.1-5.5c0.7-2.2,1.1-4.6,1.1-7.3V219
	h15.2v43.8c0,4.5-0.7,8.6-2.2,12.3c-1.4,3.7-3.5,6.9-6.2,9.6c-2.7,2.7-5.9,4.8-9.7,6.3c-3.8,1.5-8.1,2.3-12.9,2.3
	c-4.8,0-9.1-0.8-12.9-2.3c-3.8-1.5-7.1-3.6-9.7-6.3c-2.7-2.7-4.7-5.9-6.2-9.6c-1.4-3.7-2.2-7.8-2.2-12.3V219h15.2v43.8
	c0,2.7,0.4,5.1,1.1,7.3c0.7,2.2,1.7,4,3.1,5.5c1.4,1.5,3,2.7,5,3.5C589.8,279.9,592.1,280.3,594.6,280.3z"/>
<path class="st5" d="M683.6,280.1v12.4H640V219h15.2v61.1H683.6z"/>
<path class="st5" d="M762.2,292.5h-11.8c-1.3,0-2.4-0.3-3.2-0.9c-0.8-0.6-1.4-1.4-1.8-2.4l-5-14h-29.3l-5,14
	c-0.3,0.8-0.9,1.6-1.8,2.3c-0.8,0.7-1.9,1-3.2,1h-11.9L718,219h15.5L762.2,292.5z M736.7,264.6l-8-22.5c-0.5-1.2-1-2.6-1.5-4.2
	c-0.5-1.6-1-3.3-1.5-5.2c-0.5,1.9-1,3.6-1.5,5.2s-1,3-1.5,4.2l-7.9,22.4H736.7z"/>
<path class="st5" d="M827.6,292.5h-13.7c-2.6,0-4.4-1-5.6-2.9l-14-22.5c-0.6-0.9-1.2-1.5-1.9-1.9c-0.7-0.4-1.7-0.6-3.1-0.6h-5.2v28
	H769V219h23.1c5.1,0,9.5,0.5,13.2,1.6s6.6,2.5,9,4.4c2.3,1.9,4,4.1,5.1,6.8c1.1,2.6,1.6,5.5,1.6,8.6c0,2.4-0.3,4.7-1,6.9
	c-0.7,2.2-1.7,4.2-3,6c-1.3,1.8-2.9,3.4-4.9,4.8c-1.9,1.4-4.1,2.5-6.6,3.3c1,0.5,1.9,1.2,2.7,2c0.8,0.8,1.6,1.7,2.3,2.7L827.6,292.5
	z M792,253.8c2.5,0,4.6-0.3,6.4-0.9c1.8-0.6,3.3-1.5,4.4-2.6c1.1-1.1,2-2.4,2.5-3.9c0.5-1.5,0.8-3.1,0.8-4.9c0-3.5-1.2-6.2-3.5-8.1
	c-2.3-1.9-5.8-2.9-10.6-2.9h-7.9v23.2H792z"/>
<g>
	<path class="st5" d="M258.9,164h-88.9l-44.5-77l44.5-77h88.9l44.5,77L258.9,164z M179.2,148h70.4l35.2-61l-35.2-61h-70.4L144,87
		L179.2,148z"/>
</g>
</svg>
